<svg width="103" height="69" viewBox="0 0 103 69" fill="none" xmlns="http://www.w3.org/2000/svg">
<mask id="path-1-outside-1" maskUnits="userSpaceOnUse" x="0" y="0" width="102" height="46" fill="black">
<rect fill="white" width="102" height="46"/>
<path fill-rule="evenodd" clip-rule="evenodd" d="M27.8704 2H32.3007C32.5233 2 32.7098 2.17212 32.7098 2.37755V43.2975C32.709 43.3976 32.6657 43.4933 32.5892 43.5642C32.5127 43.6351 32.4091 43.6754 32.3007 43.6765H27.8704C27.7621 43.6754 27.6585 43.6351 27.582 43.5642C27.5055 43.4933 27.4622 43.3976 27.4614 43.2975V2.37755C27.4614 2.17212 27.6464 2 27.8704 2ZM58.3186 35.6702V36.7015C58.3186 37.1484 58.2449 37.7661 58.0584 38.5573C57.9095 39.3124 57.4629 40.1022 56.7561 40.8587C56.0493 41.6152 55.0071 42.3023 53.592 42.852C52.1784 43.4016 50.2415 43.6765 47.7481 43.6765C45.2533 43.6765 43.3178 43.4016 41.9042 42.852C40.4906 42.3023 39.4469 41.6485 38.7401 40.8587C38.0333 40.1022 37.5852 39.3124 37.4363 38.5226C37.2874 37.7314 37.1762 37.1484 37.1762 36.7015V13.4071C37.1762 13.2003 37.3626 13.0295 37.5852 13.0295H42.0155C42.2381 13.0295 42.4245 13.2003 42.4245 13.4071V35.2246C42.4245 35.9464 42.5358 36.46 42.6486 36.8736C42.7599 37.2859 42.9825 37.6981 43.3178 38.041C43.6532 38.4199 44.175 38.7281 44.8818 38.9696C45.551 39.2097 46.4819 39.3471 47.6368 39.3471C48.8279 39.3471 49.7948 39.2083 50.5016 38.9696C51.2084 38.7281 51.7303 38.4199 52.1032 38.0757C52.4747 37.7328 52.7348 37.3539 52.8476 36.9416C52.9589 36.5294 53.1078 36.1865 53.1078 35.1899V13.4071C53.1078 13.2003 53.2942 13.0295 53.5168 13.0295H57.9471C58.1697 13.0295 58.3561 13.2003 58.3561 13.4071V35.6715H58.3186V35.6702ZM73.3945 13.0295H76.3721C76.6337 13.0295 76.8187 13.2697 76.745 13.5098L75.7405 17.0827C75.7029 17.2548 75.5164 17.3575 75.3675 17.3575H73.2832C72.1658 17.3575 71.2726 17.4963 70.5658 17.7697C69.8966 18.0446 69.3371 18.3541 68.9657 18.7317C68.6351 19.052 68.3928 19.4409 68.2589 19.8657C68.1461 20.278 68.1085 20.6569 68.1085 20.9998V43.3322C68.1077 43.4323 68.0644 43.528 67.9879 43.5989C67.9114 43.6698 67.8078 43.7101 67.6995 43.7112H63.2331C63.1247 43.7101 63.0211 43.6698 62.9446 43.5989C62.8681 43.528 62.8248 43.4323 62.824 43.3322V20.0378C62.824 19.6256 62.8977 19.0065 63.0842 18.2167C63.2331 17.4255 63.6797 16.6704 64.3865 15.8806C65.0933 15.1241 66.137 14.437 67.5506 13.8873C68.9281 13.3044 70.9011 13.0295 73.3945 13.0295ZM12.5344 13.0295C16.1436 13.0295 18.7873 13.6819 20.5002 14.9867C22.1754 16.2928 23.0311 17.9432 23.0311 19.9004V36.7362C23.0311 37.4233 22.8822 38.1798 22.6221 38.9696C22.3619 39.7941 21.8401 40.5492 21.0581 41.203C20.2761 41.89 19.1978 42.4383 17.8579 42.92C16.5165 43.3669 14.7299 43.6071 12.5719 43.6071C10.3764 43.6071 8.62589 43.3669 7.28597 42.92C5.94606 42.473 4.8648 41.89 4.08431 41.203C3.30232 40.5159 2.78199 39.7594 2.52033 38.9682C2.26016 38.1451 2.11128 37.3886 2.11128 36.7362V34.0572C2.11128 32.6136 2.52183 31.3075 3.30232 30.1387C4.12191 28.9714 5.23775 28.1122 6.72805 27.6305C7.47245 27.3904 8.29204 27.1502 9.259 26.8407C10.1899 26.5312 11.1192 26.2577 12.0125 25.9468C12.9058 25.672 13.6517 25.3971 14.3209 25.1917C14.9916 24.9516 15.4007 24.8475 15.5495 24.7794C15.6984 24.71 15.921 24.6073 16.1811 24.4699C16.4428 24.3325 16.703 24.1271 16.9631 23.8869C17.2248 23.6107 17.4113 23.3025 17.5963 22.993C17.7827 22.6488 17.8579 22.2365 17.8579 21.7896V20.7249C17.8579 20.3474 17.7827 19.9698 17.5963 19.5576C17.4474 19.1439 17.1496 18.8011 16.7406 18.4568C16.3315 18.114 15.7721 17.8391 15.1014 17.6323C14.4322 17.4269 13.5765 17.3242 12.5344 17.3242C10.4876 17.3242 9.11012 17.7017 8.36573 18.4915C7.7236 19.1855 7.34448 20.054 7.28597 20.9651C7.28597 21.1719 7.0995 21.3093 6.87693 21.3093H2.41055C2.30216 21.3086 2.19842 21.2686 2.12164 21.198C2.04486 21.1274 2.00118 21.0318 2 20.9317V19.9351C2 18.9732 2.18648 18.0793 2.59552 17.2562C2.96847 16.4303 3.60008 15.6738 4.49336 15.0561C5.35054 14.437 6.43029 13.922 7.77021 13.5792C9.07253 13.235 10.6726 13.0295 12.5344 13.0295ZM17.8203 28.1122C17.7862 28.2884 17.7122 28.4561 17.6031 28.6041C17.494 28.7522 17.3523 28.8773 17.1872 28.9714C16.8519 29.1768 16.5556 29.2795 16.2563 29.3836C15.6247 29.5891 14.954 29.7959 14.2472 30.036C13.5404 30.2762 12.8697 30.5177 12.2366 30.6884C11.4922 30.9299 10.7854 31.1354 10.1523 31.3755C9.64514 31.5802 9.16976 31.8462 8.73868 32.1667C8.36573 32.4748 8.03037 32.8538 7.73111 33.3341C7.43485 33.8157 7.28597 34.4001 7.28597 35.1205C7.28597 36.5641 7.65742 37.6287 8.40182 38.3505C9.14622 39.0376 10.5237 39.4151 12.5344 39.4151C14.5811 39.4151 15.9962 39.0376 16.7406 38.3158C17.485 37.5607 17.8579 36.5294 17.8579 35.1552V28.1122H17.8203ZM89.2524 13.0295C92.8616 13.0295 95.5053 13.6819 97.2182 14.9867C98.8935 16.2928 99.7492 17.9432 99.7492 19.9004V36.7362C99.7492 37.4233 99.6003 38.1798 99.3401 38.9696C99.0784 39.7941 98.5581 40.5492 97.7761 41.203C96.9941 41.89 95.9144 42.4383 94.5745 42.92C93.2361 43.3669 91.448 43.6071 89.29 43.6071C87.0944 43.6071 85.3439 43.3669 84.004 42.92C82.6641 42.473 81.5829 41.89 80.8024 41.203C80.0204 40.5159 79.5 39.7594 79.2384 38.9682C78.9782 38.1451 78.8293 37.3886 78.8293 36.7362V34.0572C78.8293 32.6136 79.2384 31.3075 80.0204 30.1387C80.84 28.9714 81.9558 28.1122 83.4446 27.6305C84.189 27.3904 85.0086 27.1502 85.9771 26.8407C86.9064 26.5312 87.8373 26.2577 88.7306 25.9468C89.6238 25.672 90.3698 25.3971 91.039 25.1917C91.7082 24.9516 92.1187 24.8475 92.2676 24.7794C92.4165 24.71 92.639 24.6073 92.8992 24.4699C93.1609 24.3325 93.421 24.1271 93.6812 23.8869C93.9429 23.6107 94.1278 23.3025 94.3143 22.993C94.5008 22.6488 94.5745 22.2365 94.5745 21.7896V20.7249C94.5745 20.3474 94.4993 19.9698 94.3143 19.5576C94.1654 19.1439 93.8677 18.8011 93.4571 18.4568C93.0496 18.114 92.4902 17.8391 91.8209 17.6323C91.1502 17.4269 90.2946 17.3242 89.2524 17.3242C87.2042 17.3242 85.8282 17.7017 85.0838 18.4915C84.4417 19.1855 84.0625 20.054 84.004 20.9651C84.004 21.1719 83.8176 21.3093 83.5935 21.3093H79.1271C79.019 21.3082 78.9156 21.2681 78.8391 21.1975C78.7627 21.1269 78.7192 21.0315 78.718 20.9317V19.9351C78.718 18.9732 78.9045 18.0793 79.3136 17.2562C79.685 16.4303 80.3181 15.6738 81.2114 15.0561C82.0686 14.437 83.1468 13.922 84.4868 13.5792C85.8282 13.235 87.3907 13.0295 89.2524 13.0295ZM94.5384 28.1122C94.5043 28.2884 94.4302 28.4561 94.3211 28.6041C94.212 28.7522 94.0703 28.8773 93.9053 28.9714C93.5699 29.1768 93.2737 29.2795 92.9744 29.3836C92.3428 29.5891 91.6721 29.7959 90.9638 30.036C90.257 30.2762 89.5878 30.5177 88.9546 30.6884C88.2102 30.9299 87.5019 31.1354 86.8703 31.3755C86.3627 31.5801 85.8868 31.8461 85.4552 32.1667C85.0838 32.4748 84.7484 32.8538 84.4507 33.3341C84.1529 33.8157 84.004 34.4001 84.004 35.1205C84.004 36.5641 84.3755 37.6287 85.1199 38.3505C85.8643 39.0376 87.2418 39.4151 89.2524 39.4151C91.2991 39.4151 92.7142 39.0376 93.4586 38.3158C94.203 37.5607 94.5745 36.5294 94.5745 35.1552V28.1122H94.5384Z"/>
</mask>
<path fill-rule="evenodd" clip-rule="evenodd" d="M27.8704 2H32.3007C32.5233 2 32.7098 2.17212 32.7098 2.37755V43.2975C32.709 43.3976 32.6657 43.4933 32.5892 43.5642C32.5127 43.6351 32.4091 43.6754 32.3007 43.6765H27.8704C27.7621 43.6754 27.6585 43.6351 27.582 43.5642C27.5055 43.4933 27.4622 43.3976 27.4614 43.2975V2.37755C27.4614 2.17212 27.6464 2 27.8704 2ZM58.3186 35.6702V36.7015C58.3186 37.1484 58.2449 37.7661 58.0584 38.5573C57.9095 39.3124 57.4629 40.1022 56.7561 40.8587C56.0493 41.6152 55.0071 42.3023 53.592 42.852C52.1784 43.4016 50.2415 43.6765 47.7481 43.6765C45.2533 43.6765 43.3178 43.4016 41.9042 42.852C40.4906 42.3023 39.4469 41.6485 38.7401 40.8587C38.0333 40.1022 37.5852 39.3124 37.4363 38.5226C37.2874 37.7314 37.1762 37.1484 37.1762 36.7015V13.4071C37.1762 13.2003 37.3626 13.0295 37.5852 13.0295H42.0155C42.2381 13.0295 42.4245 13.2003 42.4245 13.4071V35.2246C42.4245 35.9464 42.5358 36.46 42.6486 36.8736C42.7599 37.2859 42.9825 37.6981 43.3178 38.041C43.6532 38.4199 44.175 38.7281 44.8818 38.9696C45.551 39.2097 46.4819 39.3471 47.6368 39.3471C48.8279 39.3471 49.7948 39.2083 50.5016 38.9696C51.2084 38.7281 51.7303 38.4199 52.1032 38.0757C52.4747 37.7328 52.7348 37.3539 52.8476 36.9416C52.9589 36.5294 53.1078 36.1865 53.1078 35.1899V13.4071C53.1078 13.2003 53.2942 13.0295 53.5168 13.0295H57.9471C58.1697 13.0295 58.3561 13.2003 58.3561 13.4071V35.6715H58.3186V35.6702ZM73.3945 13.0295H76.3721C76.6337 13.0295 76.8187 13.2697 76.745 13.5098L75.7405 17.0827C75.7029 17.2548 75.5164 17.3575 75.3675 17.3575H73.2832C72.1658 17.3575 71.2726 17.4963 70.5658 17.7697C69.8966 18.0446 69.3371 18.3541 68.9657 18.7317C68.6351 19.052 68.3928 19.4409 68.2589 19.8657C68.1461 20.278 68.1085 20.6569 68.1085 20.9998V43.3322C68.1077 43.4323 68.0644 43.528 67.9879 43.5989C67.9114 43.6698 67.8078 43.7101 67.6995 43.7112H63.2331C63.1247 43.7101 63.0211 43.6698 62.9446 43.5989C62.8681 43.528 62.8248 43.4323 62.824 43.3322V20.0378C62.824 19.6256 62.8977 19.0065 63.0842 18.2167C63.2331 17.4255 63.6797 16.6704 64.3865 15.8806C65.0933 15.1241 66.137 14.437 67.5506 13.8873C68.9281 13.3044 70.9011 13.0295 73.3945 13.0295ZM12.5344 13.0295C16.1436 13.0295 18.7873 13.6819 20.5002 14.9867C22.1754 16.2928 23.0311 17.9432 23.0311 19.9004V36.7362C23.0311 37.4233 22.8822 38.1798 22.6221 38.9696C22.3619 39.7941 21.8401 40.5492 21.0581 41.203C20.2761 41.89 19.1978 42.4383 17.8579 42.92C16.5165 43.3669 14.7299 43.6071 12.5719 43.6071C10.3764 43.6071 8.62589 43.3669 7.28597 42.92C5.94606 42.473 4.8648 41.89 4.08431 41.203C3.30232 40.5159 2.78199 39.7594 2.52033 38.9682C2.26016 38.1451 2.11128 37.3886 2.11128 36.7362V34.0572C2.11128 32.6136 2.52183 31.3075 3.30232 30.1387C4.12191 28.9714 5.23775 28.1122 6.72805 27.6305C7.47245 27.3904 8.29204 27.1502 9.259 26.8407C10.1899 26.5312 11.1192 26.2577 12.0125 25.9468C12.9058 25.672 13.6517 25.3971 14.3209 25.1917C14.9916 24.9516 15.4007 24.8475 15.5495 24.7794C15.6984 24.71 15.921 24.6073 16.1811 24.4699C16.4428 24.3325 16.703 24.1271 16.9631 23.8869C17.2248 23.6107 17.4113 23.3025 17.5963 22.993C17.7827 22.6488 17.8579 22.2365 17.8579 21.7896V20.7249C17.8579 20.3474 17.7827 19.9698 17.5963 19.5576C17.4474 19.1439 17.1496 18.8011 16.7406 18.4568C16.3315 18.114 15.7721 17.8391 15.1014 17.6323C14.4322 17.4269 13.5765 17.3242 12.5344 17.3242C10.4876 17.3242 9.11012 17.7017 8.36573 18.4915C7.7236 19.1855 7.34448 20.054 7.28597 20.9651C7.28597 21.1719 7.0995 21.3093 6.87693 21.3093H2.41055C2.30216 21.3086 2.19842 21.2686 2.12164 21.198C2.04486 21.1274 2.00118 21.0318 2 20.9317V19.9351C2 18.9732 2.18648 18.0793 2.59552 17.2562C2.96847 16.4303 3.60008 15.6738 4.49336 15.0561C5.35054 14.437 6.43029 13.922 7.77021 13.5792C9.07253 13.235 10.6726 13.0295 12.5344 13.0295ZM17.8203 28.1122C17.7862 28.2884 17.7122 28.4561 17.6031 28.6041C17.494 28.7522 17.3523 28.8773 17.1872 28.9714C16.8519 29.1768 16.5556 29.2795 16.2563 29.3836C15.6247 29.5891 14.954 29.7959 14.2472 30.036C13.5404 30.2762 12.8697 30.5177 12.2366 30.6884C11.4922 30.9299 10.7854 31.1354 10.1523 31.3755C9.64514 31.5802 9.16976 31.8462 8.73868 32.1667C8.36573 32.4748 8.03037 32.8538 7.73111 33.3341C7.43485 33.8157 7.28597 34.4001 7.28597 35.1205C7.28597 36.5641 7.65742 37.6287 8.40182 38.3505C9.14622 39.0376 10.5237 39.4151 12.5344 39.4151C14.5811 39.4151 15.9962 39.0376 16.7406 38.3158C17.485 37.5607 17.8579 36.5294 17.8579 35.1552V28.1122H17.8203ZM89.2524 13.0295C92.8616 13.0295 95.5053 13.6819 97.2182 14.9867C98.8935 16.2928 99.7492 17.9432 99.7492 19.9004V36.7362C99.7492 37.4233 99.6003 38.1798 99.3401 38.9696C99.0784 39.7941 98.5581 40.5492 97.7761 41.203C96.9941 41.89 95.9144 42.4383 94.5745 42.92C93.2361 43.3669 91.448 43.6071 89.29 43.6071C87.0944 43.6071 85.3439 43.3669 84.004 42.92C82.6641 42.473 81.5829 41.89 80.8024 41.203C80.0204 40.5159 79.5 39.7594 79.2384 38.9682C78.9782 38.1451 78.8293 37.3886 78.8293 36.7362V34.0572C78.8293 32.6136 79.2384 31.3075 80.0204 30.1387C80.84 28.9714 81.9558 28.1122 83.4446 27.6305C84.189 27.3904 85.0086 27.1502 85.9771 26.8407C86.9064 26.5312 87.8373 26.2577 88.7306 25.9468C89.6238 25.672 90.3698 25.3971 91.039 25.1917C91.7082 24.9516 92.1187 24.8475 92.2676 24.7794C92.4165 24.71 92.639 24.6073 92.8992 24.4699C93.1609 24.3325 93.421 24.1271 93.6812 23.8869C93.9429 23.6107 94.1278 23.3025 94.3143 22.993C94.5008 22.6488 94.5745 22.2365 94.5745 21.7896V20.7249C94.5745 20.3474 94.4993 19.9698 94.3143 19.5576C94.1654 19.1439 93.8677 18.8011 93.4571 18.4568C93.0496 18.114 92.4902 17.8391 91.8209 17.6323C91.1502 17.4269 90.2946 17.3242 89.2524 17.3242C87.2042 17.3242 85.8282 17.7017 85.0838 18.4915C84.4417 19.1855 84.0625 20.054 84.004 20.9651C84.004 21.1719 83.8176 21.3093 83.5935 21.3093H79.1271C79.019 21.3082 78.9156 21.2681 78.8391 21.1975C78.7627 21.1269 78.7192 21.0315 78.718 20.9317V19.9351C78.718 18.9732 78.9045 18.0793 79.3136 17.2562C79.685 16.4303 80.3181 15.6738 81.2114 15.0561C82.0686 14.437 83.1468 13.922 84.4868 13.5792C85.8282 13.235 87.3907 13.0295 89.2524 13.0295ZM94.5384 28.1122C94.5043 28.2884 94.4302 28.4561 94.3211 28.6041C94.212 28.7522 94.0703 28.8773 93.9053 28.9714C93.5699 29.1768 93.2737 29.2795 92.9744 29.3836C92.3428 29.5891 91.6721 29.7959 90.9638 30.036C90.257 30.2762 89.5878 30.5177 88.9546 30.6884C88.2102 30.9299 87.5019 31.1354 86.8703 31.3755C86.3627 31.5801 85.8868 31.8461 85.4552 32.1667C85.0838 32.4748 84.7484 32.8538 84.4507 33.3341C84.1529 33.8157 84.004 34.4001 84.004 35.1205C84.004 36.5641 84.3755 37.6287 85.1199 38.3505C85.8643 39.0376 87.2418 39.4151 89.2524 39.4151C91.2991 39.4151 92.7142 39.0376 93.4586 38.3158C94.203 37.5607 94.5745 36.5294 94.5745 35.1552V28.1122H94.5384Z" fill="white"/>
<path fill-rule="evenodd" clip-rule="evenodd" d="M27.8704 2H32.3007C32.5233 2 32.7098 2.17212 32.7098 2.37755V43.2975C32.709 43.3976 32.6657 43.4933 32.5892 43.5642C32.5127 43.6351 32.4091 43.6754 32.3007 43.6765H27.8704C27.7621 43.6754 27.6585 43.6351 27.582 43.5642C27.5055 43.4933 27.4622 43.3976 27.4614 43.2975V2.37755C27.4614 2.17212 27.6464 2 27.8704 2ZM58.3186 35.6702V36.7015C58.3186 37.1484 58.2449 37.7661 58.0584 38.5573C57.9095 39.3124 57.4629 40.1022 56.7561 40.8587C56.0493 41.6152 55.0071 42.3023 53.592 42.852C52.1784 43.4016 50.2415 43.6765 47.7481 43.6765C45.2533 43.6765 43.3178 43.4016 41.9042 42.852C40.4906 42.3023 39.4469 41.6485 38.7401 40.8587C38.0333 40.1022 37.5852 39.3124 37.4363 38.5226C37.2874 37.7314 37.1762 37.1484 37.1762 36.7015V13.4071C37.1762 13.2003 37.3626 13.0295 37.5852 13.0295H42.0155C42.2381 13.0295 42.4245 13.2003 42.4245 13.4071V35.2246C42.4245 35.9464 42.5358 36.46 42.6486 36.8736C42.7599 37.2859 42.9825 37.6981 43.3178 38.041C43.6532 38.4199 44.175 38.7281 44.8818 38.9696C45.551 39.2097 46.4819 39.3471 47.6368 39.3471C48.8279 39.3471 49.7948 39.2083 50.5016 38.9696C51.2084 38.7281 51.7303 38.4199 52.1032 38.0757C52.4747 37.7328 52.7348 37.3539 52.8476 36.9416C52.9589 36.5294 53.1078 36.1865 53.1078 35.1899V13.4071C53.1078 13.2003 53.2942 13.0295 53.5168 13.0295H57.9471C58.1697 13.0295 58.3561 13.2003 58.3561 13.4071V35.6715H58.3186V35.6702ZM73.3945 13.0295H76.3721C76.6337 13.0295 76.8187 13.2697 76.745 13.5098L75.7405 17.0827C75.7029 17.2548 75.5164 17.3575 75.3675 17.3575H73.2832C72.1658 17.3575 71.2726 17.4963 70.5658 17.7697C69.8966 18.0446 69.3371 18.3541 68.9657 18.7317C68.6351 19.052 68.3928 19.4409 68.2589 19.8657C68.1461 20.278 68.1085 20.6569 68.1085 20.9998V43.3322C68.1077 43.4323 68.0644 43.528 67.9879 43.5989C67.9114 43.6698 67.8078 43.7101 67.6995 43.7112H63.2331C63.1247 43.7101 63.0211 43.6698 62.9446 43.5989C62.8681 43.528 62.8248 43.4323 62.824 43.3322V20.0378C62.824 19.6256 62.8977 19.0065 63.0842 18.2167C63.2331 17.4255 63.6797 16.6704 64.3865 15.8806C65.0933 15.1241 66.137 14.437 67.5506 13.8873C68.9281 13.3044 70.9011 13.0295 73.3945 13.0295ZM12.5344 13.0295C16.1436 13.0295 18.7873 13.6819 20.5002 14.9867C22.1754 16.2928 23.0311 17.9432 23.0311 19.9004V36.7362C23.0311 37.4233 22.8822 38.1798 22.6221 38.9696C22.3619 39.7941 21.8401 40.5492 21.0581 41.203C20.2761 41.89 19.1978 42.4383 17.8579 42.92C16.5165 43.3669 14.7299 43.6071 12.5719 43.6071C10.3764 43.6071 8.62589 43.3669 7.28597 42.92C5.94606 42.473 4.8648 41.89 4.08431 41.203C3.30232 40.5159 2.78199 39.7594 2.52033 38.9682C2.26016 38.1451 2.11128 37.3886 2.11128 36.7362V34.0572C2.11128 32.6136 2.52183 31.3075 3.30232 30.1387C4.12191 28.9714 5.23775 28.1122 6.72805 27.6305C7.47245 27.3904 8.29204 27.1502 9.259 26.8407C10.1899 26.5312 11.1192 26.2577 12.0125 25.9468C12.9058 25.672 13.6517 25.3971 14.3209 25.1917C14.9916 24.9516 15.4007 24.8475 15.5495 24.7794C15.6984 24.71 15.921 24.6073 16.1811 24.4699C16.4428 24.3325 16.703 24.1271 16.9631 23.8869C17.2248 23.6107 17.4113 23.3025 17.5963 22.993C17.7827 22.6488 17.8579 22.2365 17.8579 21.7896V20.7249C17.8579 20.3474 17.7827 19.9698 17.5963 19.5576C17.4474 19.1439 17.1496 18.8011 16.7406 18.4568C16.3315 18.114 15.7721 17.8391 15.1014 17.6323C14.4322 17.4269 13.5765 17.3242 12.5344 17.3242C10.4876 17.3242 9.11012 17.7017 8.36573 18.4915C7.7236 19.1855 7.34448 20.054 7.28597 20.9651C7.28597 21.1719 7.0995 21.3093 6.87693 21.3093H2.41055C2.30216 21.3086 2.19842 21.2686 2.12164 21.198C2.04486 21.1274 2.00118 21.0318 2 20.9317V19.9351C2 18.9732 2.18648 18.0793 2.59552 17.2562C2.96847 16.4303 3.60008 15.6738 4.49336 15.0561C5.35054 14.437 6.43029 13.922 7.77021 13.5792C9.07253 13.235 10.6726 13.0295 12.5344 13.0295ZM17.8203 28.1122C17.7862 28.2884 17.7122 28.4561 17.6031 28.6041C17.494 28.7522 17.3523 28.8773 17.1872 28.9714C16.8519 29.1768 16.5556 29.2795 16.2563 29.3836C15.6247 29.5891 14.954 29.7959 14.2472 30.036C13.5404 30.2762 12.8697 30.5177 12.2366 30.6884C11.4922 30.9299 10.7854 31.1354 10.1523 31.3755C9.64514 31.5802 9.16976 31.8462 8.73868 32.1667C8.36573 32.4748 8.03037 32.8538 7.73111 33.3341C7.43485 33.8157 7.28597 34.4001 7.28597 35.1205C7.28597 36.5641 7.65742 37.6287 8.40182 38.3505C9.14622 39.0376 10.5237 39.4151 12.5344 39.4151C14.5811 39.4151 15.9962 39.0376 16.7406 38.3158C17.485 37.5607 17.8579 36.5294 17.8579 35.1552V28.1122H17.8203ZM89.2524 13.0295C92.8616 13.0295 95.5053 13.6819 97.2182 14.9867C98.8935 16.2928 99.7492 17.9432 99.7492 19.9004V36.7362C99.7492 37.4233 99.6003 38.1798 99.3401 38.9696C99.0784 39.7941 98.5581 40.5492 97.7761 41.203C96.9941 41.89 95.9144 42.4383 94.5745 42.92C93.2361 43.3669 91.448 43.6071 89.29 43.6071C87.0944 43.6071 85.3439 43.3669 84.004 42.92C82.6641 42.473 81.5829 41.89 80.8024 41.203C80.0204 40.5159 79.5 39.7594 79.2384 38.9682C78.9782 38.1451 78.8293 37.3886 78.8293 36.7362V34.0572C78.8293 32.6136 79.2384 31.3075 80.0204 30.1387C80.84 28.9714 81.9558 28.1122 83.4446 27.6305C84.189 27.3904 85.0086 27.1502 85.9771 26.8407C86.9064 26.5312 87.8373 26.2577 88.7306 25.9468C89.6238 25.672 90.3698 25.3971 91.039 25.1917C91.7082 24.9516 92.1187 24.8475 92.2676 24.7794C92.4165 24.71 92.639 24.6073 92.8992 24.4699C93.1609 24.3325 93.421 24.1271 93.6812 23.8869C93.9429 23.6107 94.1278 23.3025 94.3143 22.993C94.5008 22.6488 94.5745 22.2365 94.5745 21.7896V20.7249C94.5745 20.3474 94.4993 19.9698 94.3143 19.5576C94.1654 19.1439 93.8677 18.8011 93.4571 18.4568C93.0496 18.114 92.4902 17.8391 91.8209 17.6323C91.1502 17.4269 90.2946 17.3242 89.2524 17.3242C87.2042 17.3242 85.8282 17.7017 85.0838 18.4915C84.4417 19.1855 84.0625 20.054 84.004 20.9651C84.004 21.1719 83.8176 21.3093 83.5935 21.3093H79.1271C79.019 21.3082 78.9156 21.2681 78.8391 21.1975C78.7627 21.1269 78.7192 21.0315 78.718 20.9317V19.9351C78.718 18.9732 78.9045 18.0793 79.3136 17.2562C79.685 16.4303 80.3181 15.6738 81.2114 15.0561C82.0686 14.437 83.1468 13.922 84.4868 13.5792C85.8282 13.235 87.3907 13.0295 89.2524 13.0295ZM94.5384 28.1122C94.5043 28.2884 94.4302 28.4561 94.3211 28.6041C94.212 28.7522 94.0703 28.8773 93.9053 28.9714C93.5699 29.1768 93.2737 29.2795 92.9744 29.3836C92.3428 29.5891 91.6721 29.7959 90.9638 30.036C90.257 30.2762 89.5878 30.5177 88.9546 30.6884C88.2102 30.9299 87.5019 31.1354 86.8703 31.3755C86.3627 31.5801 85.8868 31.8461 85.4552 32.1667C85.0838 32.4748 84.7484 32.8538 84.4507 33.3341C84.1529 33.8157 84.004 34.4001 84.004 35.1205C84.004 36.5641 84.3755 37.6287 85.1199 38.3505C85.8643 39.0376 87.2418 39.4151 89.2524 39.4151C91.2991 39.4151 92.7142 39.0376 93.4586 38.3158C94.203 37.5607 94.5745 36.5294 94.5745 35.1552V28.1122H94.5384Z" stroke="#252B51" stroke-width="4" mask="url(#path-1-outside-1)"/>
<path fill-rule="evenodd" clip-rule="evenodd" d="M61.3303 54.2513C60.8996 53.6364 60.2369 53.3289 59.3424 53.3289C58.3201 53.3289 57.428 53.6889 56.666 54.4087C55.9041 55.1286 55.3282 56.051 54.9383 57.1758C54.5476 58.2856 54.3814 59.4104 54.4395 60.5502C54.4747 61.2401 54.6426 61.87 54.9433 62.4399C55.2591 62.9948 55.6491 63.4372 56.1132 63.7672C56.5773 64.0971 57.0409 64.2621 57.5042 64.2621C57.6789 64.2621 57.8531 64.2446 58.0271 64.2097C58.5371 64.1073 59.0439 63.8548 59.5474 63.4522C59.3072 63.2041 59.0682 62.945 58.8302 62.6747C58.5503 62.3568 58.272 62.0236 57.9951 61.675C57.499 61.0301 57.2464 60.6177 57.2372 60.4377C57.2165 60.0328 57.2822 59.7553 57.4343 59.6054C57.6016 59.4404 57.8769 59.3579 58.2603 59.3579C58.3082 59.3579 58.6495 59.6279 59.284 60.1678C59.3704 60.2452 59.4953 60.3537 59.6587 60.4933C59.97 60.7593 60.4211 61.1382 61.0119 61.63C61.2788 61.1455 61.4968 60.6278 61.6658 60.0767C61.7375 59.8431 61.8003 59.6035 61.8544 59.3579C62.0511 58.518 62.1265 57.6482 62.0806 56.7483C62.0271 55.6985 61.777 54.8662 61.3303 54.2513ZM50.6115 54.7737C51.4144 53.1649 52.5985 51.8684 54.1549 50.9162C55.7356 49.9334 57.5427 49.4499 59.5279 49.4499C61.5928 49.4499 63.4174 50.1359 64.8233 51.5668C65.7782 52.5179 66.3823 53.7119 66.7166 55.0654C66.929 54.6955 67.21 54.323 67.5941 54.0349L67.6173 54.0176L67.6411 54.001C68.2967 53.5458 69.1296 53.4767 69.7353 53.4767C70.3784 53.4767 71.1453 53.551 71.8191 53.896C72.3324 54.1429 73.1243 54.6942 73.233 55.6822C73.3641 55.3641 73.5202 55.0637 73.7061 54.7875L73.7136 54.7763C74.3412 53.8619 75.358 53.4992 76.3974 53.4992C76.9372 53.4992 77.6308 53.5664 78.2555 53.9105C78.4 53.9901 78.5328 54.0801 78.6533 54.1789C78.7183 54.0955 78.7892 54.019 78.8639 53.9493C78.587 53.4817 78.4479 52.9693 78.4215 52.4516C78.3795 51.6296 78.6192 50.8646 79.1323 50.2169L79.1448 50.2011L79.1578 50.1856C79.8046 49.4124 80.7352 49.0675 81.7333 49.0675C82.7069 49.0675 83.6271 49.3615 84.4104 49.9592C85.1688 50.5258 85.7648 51.3341 85.8172 52.3616C85.8633 53.2641 85.4721 53.9937 84.8832 54.5289C84.9842 54.5045 85.0854 54.4834 85.182 54.4648C85.5602 54.3922 86.0625 54.3225 86.6641 54.2534C87.8631 54.1157 89.1633 53.9938 90.5636 53.8875C91.9341 53.7701 92.9073 53.7017 93.3837 53.7017C93.8449 53.7017 94.3798 53.798 94.8682 54.0853C95.0912 53.0534 95.2734 52.1502 95.4154 51.3743C95.5349 50.6749 95.8921 50.014 96.5697 49.56C97.2131 49.1288 97.9734 49 98.6694 49C99.3192 49 100.089 49.1057 100.768 49.5302C101.129 49.7556 101.483 50.088 101.703 50.55C101.924 51.0121 101.947 51.4709 101.88 51.8603L101.875 51.8876L99.8253 61.5492C99.7455 61.9674 99.5822 62.4717 99.2247 62.8999C99.5294 63.3528 99.6777 63.8668 99.7036 64.3746C99.757 65.4219 99.2463 66.2562 98.4981 66.8397C97.7877 67.4062 96.9235 67.7136 95.9581 67.7136C95.0722 67.7136 94.2657 67.3906 93.6239 66.8156L93.6077 66.801L93.5918 66.7861C93.5672 66.763 93.5431 66.7396 93.5193 66.716C93.1507 66.9848 92.7147 67.1785 92.2165 67.2618L92.1648 67.2704L92.1125 67.276C88.0302 67.7126 85.7414 67.9644 85.1976 68.0358L85.1721 68.0392L85.1464 68.0418C84.852 68.0718 84.6276 68.0945 84.4742 68.1097L84.2925 68.1275L84.231 68.1331L84.1944 68.136L84.1597 68.1382C84.1512 68.1387 84.1087 68.1411 84.057 68.1411C83.6192 68.1411 83.1665 68.0849 82.7219 67.9408C82.4996 67.8712 82.0013 67.6937 81.6045 67.2885C81.3357 67.3785 81.0696 67.42 80.8621 67.4435C80.5731 67.4762 80.2529 67.4887 79.9177 67.4887C79.1529 67.4887 78.0298 67.2802 77.3689 66.2987C77.2027 66.8843 76.8037 67.4239 76.1204 67.7212C75.5985 67.9616 75.0315 68.0286 74.527 68.0286C73.9011 68.0286 73.1923 67.9703 72.5696 67.7131C72.3705 67.6309 72.1541 67.5177 71.9465 67.3615C71.3319 67.66 70.6399 67.8936 69.9197 67.8936C68.7312 67.8936 67.5604 67.7359 66.5843 67.2506C66.5037 67.3575 66.4126 67.4604 66.3102 67.5585C65.6997 68.1774 64.8784 68.3885 64.1121 68.3885C63.6062 68.3885 63.179 68.2035 62.9768 68.1095C62.7188 67.9897 62.4553 67.8353 62.2005 67.6716C61.932 67.4991 61.6324 67.2896 61.3039 67.0466C60.0891 67.6087 58.7669 67.8936 57.354 67.8936C55.079 67.8936 53.0649 67.2121 51.635 65.6238C50.2971 64.1375 49.6735 62.2009 49.5617 60.0103C49.4661 58.1359 49.8094 56.381 50.6115 54.7737ZM61.4043 65.0944C60.1669 65.8893 58.7895 66.2867 57.272 66.2867C55.3712 66.2867 53.9212 65.7318 52.9221 64.622C51.9231 63.5122 51.3734 61.975 51.2732 60.0103C51.1898 58.3756 51.4886 56.8758 52.1698 55.511C52.8509 54.1463 53.8421 53.0665 55.1433 52.2716C56.4438 51.4617 57.9326 51.0568 59.6099 51.0568C61.2392 51.0568 62.5678 51.5817 63.5958 52.6315C64.6389 53.6664 65.2133 55.2186 65.3189 57.2883C65.338 57.6626 65.3334 58.0352 65.305 58.4062C65.2494 59.1349 65.1022 59.8571 64.8635 60.5727C64.7913 60.7889 64.7119 61.0006 64.6253 61.2078C64.2791 62.0354 63.8168 62.791 63.2385 63.4747C63.7634 63.9186 64.1918 64.2906 64.5235 64.5908C65.0886 65.102 65.3736 65.4049 65.3784 65.4994C65.392 65.7657 65.344 65.9935 65.2345 66.1828C65.1836 66.2708 65.1195 66.3504 65.0421 66.4217C64.8147 66.6617 64.4774 66.7817 64.0301 66.7817C63.6947 66.7817 62.8194 66.2193 61.4043 65.0944ZM66.1723 63.9181C66.1744 63.9804 66.1771 64.0426 66.1803 64.1046C66.2099 64.6855 66.4221 65.1504 66.8169 65.4994C66.9009 65.5736 66.9931 65.6426 67.0936 65.7063C67.7038 66.0933 68.6185 66.2867 69.8378 66.2867C70.1781 66.2867 70.5881 66.1724 71.0676 65.9436C71.1507 65.9039 71.2359 65.8608 71.3232 65.8143C71.3794 65.7843 71.435 65.7543 71.4898 65.7243C71.5737 65.6785 71.6558 65.6326 71.7362 65.5868C71.742 65.5834 71.7478 65.5801 71.7536 65.5768C71.8711 65.5096 71.9849 65.4425 72.0952 65.3753C72.0981 65.3735 72.1011 65.3717 72.1041 65.3698C72.3773 65.203 72.628 65.0363 72.8563 64.8695L72.7562 65.7243C72.7733 66.0594 73.0705 66.2737 73.6477 66.3673C73.8714 66.4036 74.1372 66.4217 74.445 66.4217C74.8124 66.4217 75.1053 66.3692 75.3235 66.2642C75.5426 66.1743 75.6775 66.0018 75.7284 65.7468C75.8894 64.832 76.2794 62.9273 76.8985 60.0328L77.671 56.3884C77.6831 56.3134 77.7025 56.2234 77.7291 56.1184C77.7709 55.9985 77.7899 55.901 77.7861 55.826C77.7616 55.3461 77.326 55.1061 76.4794 55.1061C75.8724 55.1061 75.4351 55.3011 75.1675 55.691C74.9151 56.066 74.7163 56.5534 74.5712 57.1533C74.4527 57.6482 74.1614 58.983 73.6973 61.1576L73.311 62.9798C72.9691 63.2419 72.501 63.4993 71.9066 63.7519C71.7527 63.8173 71.5904 63.8824 71.4196 63.9471C71.243 64.0154 71.0773 64.0763 70.9225 64.1298C70.3631 64.323 69.9458 64.4196 69.6706 64.4196C69.5428 64.4196 69.3952 64.3446 69.2278 64.1946C69.0605 64.0446 68.9718 63.8721 68.9618 63.6772C68.8478 61.4426 69.4815 59.1479 70.8629 56.7933C70.9808 56.5984 71.1226 56.4034 71.2883 56.2084C71.4526 55.9835 71.5335 55.8485 71.5312 55.8035C71.5213 55.6085 71.3691 55.4436 71.0747 55.3086C70.7955 55.1586 70.3764 55.0836 69.8173 55.0836C69.2902 55.0836 68.9186 55.1586 68.7026 55.3086C68.5026 55.4586 68.3156 55.706 68.1415 56.051C67.6792 56.9842 67.2981 57.8955 66.998 58.7851C66.7339 59.5679 66.5326 60.3338 66.3941 61.0828C66.3572 61.2826 66.3247 61.4812 66.2967 61.6786C66.1882 62.4431 66.1467 63.1897 66.1723 63.9181ZM80.1808 56.2084C79.0209 61.3376 78.4478 64.0371 78.4615 64.3071C78.5012 64.772 78.6086 65.1544 78.7836 65.4544C78.9579 65.7393 79.3086 65.8818 79.8357 65.8818C80.2523 65.8818 80.5725 65.8595 80.7963 65.8148C80.8901 65.796 80.9669 65.7734 81.0269 65.7468C81.2299 65.6568 81.3273 65.5294 81.3188 65.3644L81.1326 64.532L82.8519 56.4334C82.8762 56.2834 82.8861 56.1634 82.8815 56.0735C82.8712 55.8713 82.8197 55.686 82.7272 55.5176C82.6687 55.4112 82.5937 55.3115 82.5024 55.2186C82.3772 55.0819 82.2124 54.9842 82.0082 54.9253C81.8539 54.8809 81.6771 54.8587 81.4777 54.8587C80.8867 54.8587 80.4896 54.9037 80.2866 54.9936C80.2048 55.0299 80.1402 55.0722 80.0928 55.1205C80.0223 55.1923 79.9896 55.2775 79.9946 55.3761L80.1808 56.2084ZM90.2283 57.6032C89.76 58.0565 89.1754 58.6497 88.4747 59.3827C87.8772 60.0077 87.1953 60.7343 86.4289 61.5625C85.2336 62.8673 84.2717 63.8946 83.5432 64.6445C83.4473 64.6445 83.2728 64.667 83.0195 64.712C82.9815 64.7184 82.9454 64.7252 82.9113 64.7324C82.8901 64.7369 82.8697 64.7415 82.8501 64.7464C82.7242 64.7773 82.6287 64.8153 82.5636 64.8603C82.539 64.8774 82.5187 64.8954 82.5027 64.9145C82.4325 64.9837 82.3977 65.0785 82.3981 65.1988C82.3982 65.2088 82.3984 65.219 82.399 65.2294C82.4011 65.2715 82.4081 65.3165 82.4198 65.3644C82.4458 65.4702 82.4952 65.5901 82.568 65.7243C82.6738 65.9193 82.7446 66.0543 82.7803 66.1293C82.7821 66.1349 82.7841 66.1404 82.7863 66.146C82.7972 66.1727 82.8133 66.1983 82.8347 66.2227C82.8417 66.2307 82.8493 66.2386 82.8574 66.2464C82.9289 66.3144 83.0439 66.3728 83.2026 66.4217C83.43 66.4967 83.6875 66.5342 83.975 66.5342C83.991 66.5342 84.293 66.5042 84.8809 66.4442C85.4522 66.3692 87.7713 66.1143 91.8384 65.6793C92.1076 65.6343 92.3491 65.5144 92.5628 65.3194C92.5928 65.2918 92.6208 65.2639 92.6467 65.2355C92.8121 65.0544 92.8924 64.8574 92.8874 64.6445C92.8873 64.637 92.887 64.6295 92.8866 64.622C92.87 64.2962 92.7835 64.0509 92.6271 63.8859C92.4668 63.7168 92.2329 63.6322 91.9256 63.6322C91.5114 63.6322 90.7834 63.6843 89.7419 63.7885C89.0163 63.8611 88.1385 63.959 87.1086 64.0821L90.1563 60.8876C91.3676 59.5829 92.3911 58.5105 93.2268 57.6707L93.7321 57.2433C93.9352 57.1533 94.1044 57.0258 94.2398 56.8608C94.2425 56.8571 94.2453 56.8534 94.248 56.8497C94.3769 56.6731 94.4364 56.4894 94.4267 56.2984C94.4237 56.2401 94.4185 56.1844 94.4111 56.1313C94.4022 56.0682 94.3903 56.0088 94.3751 55.9531C94.3399 55.8232 94.2876 55.7129 94.2183 55.6223C94.0583 55.4132 93.8074 55.3086 93.4657 55.3086C93.0823 55.3086 92.1909 55.3686 90.7913 55.4886C89.407 55.5935 88.1272 55.7135 86.9521 55.8485C85.7769 55.9835 85.1521 56.1035 85.0776 56.2084C84.8092 56.5834 84.6845 56.9583 84.7037 57.3332C84.7274 57.7982 84.9868 58.0306 85.482 58.0306L90.2283 57.6032ZM96.1389 56.314C96.0434 56.7298 95.9547 57.1205 95.8729 57.486C95.6878 58.3139 95.538 59.0128 95.4235 59.5829C95.2732 60.3927 95.2075 60.9851 95.2267 61.3601C95.2296 61.4179 95.2368 61.4729 95.2482 61.5251C95.3293 61.8955 95.624 62.1215 96.1323 62.203C96.2756 62.2259 96.4359 62.2374 96.6132 62.2374C97.1403 62.2374 97.5039 62.1624 97.7039 62.0125C97.7764 61.9621 97.841 61.8974 97.8976 61.8183C98.0097 61.6619 98.0907 61.4491 98.1407 61.1801L100.188 51.5292C100.237 51.2443 100.13 51.0193 99.8661 50.8543C99.6021 50.6894 99.2305 50.6069 98.7513 50.6069C97.7769 50.6069 97.2286 50.9743 97.1064 51.7092C96.8816 52.939 96.5603 54.4687 96.1425 56.2984C96.1413 56.3036 96.1401 56.3088 96.1389 56.314ZM97.8033 63.7342C97.7133 63.5942 97.5918 63.4777 97.4385 63.3847C97.21 63.2366 96.9493 63.1372 96.6565 63.0866C96.5048 63.0604 96.3444 63.0473 96.1753 63.0473C95.6744 63.0473 95.251 63.1858 94.9053 63.4627C94.8652 63.4949 94.8261 63.5288 94.7881 63.5647C94.6642 63.6762 94.5624 63.7912 94.4826 63.9096C94.331 64.1347 94.2592 64.3721 94.2672 64.622C94.2674 64.6295 94.2677 64.637 94.2681 64.6445C94.2815 64.907 94.3626 65.1491 94.5115 65.3708C94.5837 65.4785 94.6719 65.5813 94.7761 65.6793C95.0942 65.9643 95.4609 66.1068 95.8762 66.1068C96.4352 66.1068 96.9296 65.9343 97.3593 65.5894C97.8049 65.2444 98.0159 64.8395 97.9922 64.3746C97.9794 64.1239 97.9164 63.9104 97.8033 63.7342ZM83.1502 53.6949C83.2693 53.6355 83.3833 53.5659 83.4923 53.4864C83.9235 53.1714 84.128 52.7965 84.1058 52.3616C84.0836 51.9267 83.8401 51.5367 83.3752 51.1918C82.9263 50.8468 82.4063 50.6744 81.8153 50.6744C81.2563 50.6744 80.8262 50.8543 80.525 51.2143C80.2399 51.5742 80.1092 51.9866 80.1329 52.4516C80.1496 52.7789 80.2402 53.0625 80.4046 53.3025C80.4661 53.3924 80.5381 53.4762 80.6204 53.5539C80.8325 53.7343 81.1022 53.8545 81.4295 53.9143C81.5918 53.944 81.7683 53.9588 81.9589 53.9588C82.4007 53.9588 82.7977 53.8708 83.1502 53.6949Z" fill="#252B51"/>
</svg>
